<svg viewBox="0 0 24 24" xmlns="http://www.w3.org/2000/svg" role="img" aria-label="Melimoo Pet Sitting">
<path d="M12 21.6C5.5 17.2 2 13.2 2 8.6 2 5.6 4 3.6 6.7 3.6c1.9 0 3.6 1 4.5 2.6h1.6c.9-1.6 2.6-2.6 4.5-2.6C20 3.6 22 5.6 22 8.6c0 4.6-3.5 8.6-10 13Z" fill="#e08a5d"/>
<path d="M12 21.6C5.5 17.2 2 13.2 2 8.6 2 5.6 4 3.6 6.7 3.6c1.9 0 3.6 1 4.5 2.6H12Z" fill="#b85e33"/>
<circle cx="12" cy="11.6" r="2.7" fill="#fffdf9"/>
<circle cx="8.7" cy="8.6" r="1.25" fill="#fffdf9"/>
<circle cx="12" cy="7.3" r="1.25" fill="#fffdf9"/>
<circle cx="15.3" cy="8.6" r="1.25" fill="#fffdf9"/>
</svg>
